# xmcd CD database file
#
# Track frame offsets:
#	150
#	35209
#	69595
#	110549
#	143751
#	178339
#	209611
#	243233
#
# Disc length: 3439 seconds
#
# Revision: 0
# Processed by: cddbd v1.5.2PL0 Copyright (c) Steve Scherf et al.
# Submitted via: CDex 1.70beta2
#
DISCID=7c0d6d08
DTITLE=Mike Nock Project - Meeting of the Waters
DYEAR=2007
DGENRE=Jazz
TTITLE0=The Six Virtues
TTITLE1=Mysteries
TTITLE2=Jazz Elective #2
TTITLE3=Patience
TTITLE4=Cyboreal
TTITLE5=Atavism
TTITLE6=Meeting of the Waters
TTITLE7=Sho's Cradle Song
EXTD=YEAR: 2007
EXTT0=
EXTT1=
EXTT2=
EXTT3=
EXTT4=
EXTT5=
EXTT6=
EXTT7=
PLAYORDER=
